<svg xmlns="http://www.w3.org/2000/svg" xmlns:xlink="http://www.w3.org/1999/xlink" width="36.794" height="32" viewBox="0 0 36.794 32">
  <defs>
    <clipPath id="clip-path">
      <rect id="Rectangle_115" data-name="Rectangle 115" width="36.794" height="32" transform="translate(171 1080)" fill="rgba(82,82,82,0.46)" stroke="#707070" stroke-width="1"/>
    </clipPath>
    <radialGradient id="radial-gradient" cx="9.761" cy="34.711" r="1263.026" gradientTransform="translate(8.945 43.275) rotate(-90) scale(0.877 0.024)" gradientUnits="userSpaceOnUse">
      <stop offset="0" stop-color="#fd5"/>
      <stop offset="0.1" stop-color="#fd5"/>
      <stop offset="0.5" stop-color="#ff543e"/>
      <stop offset="1" stop-color="#c837ab"/>
    </radialGradient>
  </defs>
  <g id="Mask_Group_8" data-name="Mask Group 8" transform="translate(-171 -1080)" clip-path="url(#clip-path)">
    <g id="Instagram-Logo.wine" transform="translate(171.338 1080)">
      <path id="Path_99" data-name="Path 99" d="M18.372,0C10.7,0,8.461.007,8.025.039a10.14,10.14,0,0,0-3.62.8A7.364,7.364,0,0,0,2.3,2.193,6.608,6.608,0,0,0,.168,6.112,25.56,25.56,0,0,0,0,10.869c0,1.283,0,2.972,0,5.237C0,22.83.009,24.8.046,25.177a7.313,7.313,0,0,0,.876,3.114,7.6,7.6,0,0,0,5.015,3.595A14.749,14.749,0,0,0,8.6,32.2c.455.017,5.091.03,9.73.03s9.278,0,9.721-.025a14.2,14.2,0,0,0,2.763-.317,7.551,7.551,0,0,0,5.015-3.6,7.2,7.2,0,0,0,.866-3.053c.025-.278.035-4.7.035-9.126s-.011-8.84-.036-9.118A7.118,7.118,0,0,0,35.813,3.9a6.5,6.5,0,0,0-1.572-1.89A8.428,8.428,0,0,0,29.769.148,37.679,37.679,0,0,0,24.35,0Z" transform="translate(0.001)" fill="url(#radial-gradient)"/>
      <path id="Path_100" data-name="Path 100" d="M18.372,0C10.7,0,8.461.007,8.025.039a10.14,10.14,0,0,0-3.62.8A7.364,7.364,0,0,0,2.3,2.193,6.608,6.608,0,0,0,.168,6.112,25.56,25.56,0,0,0,0,10.869c0,1.283,0,2.972,0,5.237C0,22.83.009,24.8.046,25.177a7.313,7.313,0,0,0,.876,3.114,7.6,7.6,0,0,0,5.015,3.595A14.749,14.749,0,0,0,8.6,32.2c.455.017,5.091.03,9.73.03s9.278,0,9.721-.025a14.2,14.2,0,0,0,2.763-.317,7.551,7.551,0,0,0,5.015-3.6,7.2,7.2,0,0,0,.866-3.053c.025-.278.035-4.7.035-9.126s-.011-8.84-.036-9.118A7.118,7.118,0,0,0,35.813,3.9a6.5,6.5,0,0,0-1.572-1.89A8.428,8.428,0,0,0,29.769.148,37.679,37.679,0,0,0,24.35,0Z" transform="translate(0.001)" fill="#5B51D8 "/>
      <path id="Path_101" data-name="Path 101" d="M49.265,35.7c-3.683,0-4.145.014-5.592.072a11.176,11.176,0,0,0-3.291.553,6.8,6.8,0,0,0-2.4,1.372,5.827,5.827,0,0,0-1.565,2.108,7.772,7.772,0,0,0-.63,2.888c-.064,1.269-.081,1.675-.081,4.907s.016,3.636.082,4.905a7.819,7.819,0,0,0,.63,2.888A5.815,5.815,0,0,0,37.979,57.5a6.8,6.8,0,0,0,2.4,1.373,11.185,11.185,0,0,0,3.292.553c1.446.058,1.908.072,5.591.072s4.144-.014,5.59-.072a11.192,11.192,0,0,0,3.293-.553,6.791,6.791,0,0,0,2.4-1.373A5.827,5.827,0,0,0,62.112,55.4a7.886,7.886,0,0,0,.63-2.888c.065-1.269.082-1.674.082-4.906s-.017-3.637-.082-4.907a7.882,7.882,0,0,0-.63-2.888A5.825,5.825,0,0,0,60.547,37.7a6.785,6.785,0,0,0-2.4-1.372,11.211,11.211,0,0,0-3.294-.553c-1.446-.058-1.907-.072-5.591-.072Zm-1.217,2.144h1.217c3.621,0,4.05.011,5.48.068a8.429,8.429,0,0,1,2.518.41,4.29,4.29,0,0,1,1.558.89,3.686,3.686,0,0,1,1.015,1.368,5.88,5.88,0,0,1,.467,2.209c.065,1.254.079,1.631.079,4.807s-.014,3.553-.079,4.807a5.886,5.886,0,0,1-.467,2.209,3.673,3.673,0,0,1-1.015,1.367,4.29,4.29,0,0,1-1.558.89,8.4,8.4,0,0,1-2.518.41c-1.43.057-1.859.069-5.48.069s-4.05-.012-5.48-.069a8.446,8.446,0,0,1-2.518-.41,4.3,4.3,0,0,1-1.559-.89,3.682,3.682,0,0,1-1.015-1.368,5.881,5.881,0,0,1-.467-2.209c-.065-1.254-.078-1.631-.078-4.809s.013-3.553.078-4.807a5.892,5.892,0,0,1,.467-2.209,3.68,3.68,0,0,1,1.015-1.368,4.305,4.305,0,0,1,1.559-.89,8.411,8.411,0,0,1,2.518-.41c1.251-.05,1.736-.064,4.263-.067ZM56.5,39.823a1.44,1.44,0,1,0,1.627,1.428A1.537,1.537,0,0,0,56.5,39.823Zm-7.239,1.668c-3.846,0-6.964,2.736-6.964,6.111s3.118,6.11,6.964,6.11,6.963-2.735,6.963-6.11-3.118-6.111-6.963-6.111Zm0,2.144a4.271,4.271,0,0,1,4.52,3.967,4.271,4.271,0,0,1-4.52,3.967,4.271,4.271,0,0,1-4.52-3.967A4.27,4.27,0,0,1,49.265,43.636Z" transform="translate(-30.9 -31.489)" fill="#fff"/>
    </g>
  </g>
</svg>

