<svg id="Reddit-Logo.wine" xmlns="http://www.w3.org/2000/svg" width="42.798" height="36.724" viewBox="0 0 42.798 36.724">
  <g id="Group_61" data-name="Group 61" transform="translate(0 0)">
    <ellipse id="Ellipse_7" data-name="Ellipse 7" cx="21.399" cy="18.362" rx="21.399" ry="18.362" fill="#d1d1d1"/>
    <path id="Path_88" data-name="Path 88" d="M54.163,34.912c0-.948-1.234-1.7-2.738-1.7a3.794,3.794,0,0,0-1.908.474,19.8,19.8,0,0,0-7.339-1.45l1.257-3.654,4.084.544c.045.642.9,1.158,1.953,1.158,1.077,0,1.952-.544,1.952-1.214s-.875-1.213-1.952-1.213a2.258,2.258,0,0,0-1.751.684l-4.556-.6a.726.726,0,0,0-.359.042.3.3,0,0,0-.2.2l-1.392,4.073A19.78,19.78,0,0,0,33.763,33.7a3.8,3.8,0,0,0-1.908-.474c-1.526,0-2.738.767-2.738,1.7,0,.7.673,1.283,1.616,1.548a1.944,1.944,0,0,0-.067.516c0,2.622,4.915,4.756,10.974,4.756s10.974-2.12,10.974-4.756a2.041,2.041,0,0,0-.067-.516C53.49,36.209,54.163,35.609,54.163,34.912ZM35.357,36.125c0-.669.875-1.213,1.953-1.213s1.952.544,1.952,1.213-.875,1.214-1.952,1.214S35.357,36.794,35.357,36.125Zm10.929,3.222c-1.347.837-3.905.893-4.645.893-.763,0-3.321-.07-4.646-.893a.24.24,0,0,1,0-.446.733.733,0,0,1,.718,0,8.967,8.967,0,0,0,3.928.711,8.9,8.9,0,0,0,3.927-.711.733.733,0,0,1,.718,0A.252.252,0,0,1,46.286,39.347Zm-.359-1.995c-1.077,0-1.952-.544-1.952-1.213s.875-1.213,1.952-1.213,1.953.544,1.953,1.213S47,37.352,45.927,37.352Z" transform="translate(-20.21 -16.706)" fill="#FF5700 "/>
  </g>
</svg>
