<svg xmlns="http://www.w3.org/2000/svg" width="30.046" height="30.079" viewBox="0 0 30.046 30.079">
  <path id="search_icon" data-name="search icon" d="M208.923,740.12a9.068,9.068,0,0,1,7.011,6.962,9.277,9.277,0,0,1-10.367,11.3,9.308,9.308,0,1,1,3.356-18.264ZM219,749.837a10.86,10.86,0,0,0-.29-3.045,12.246,12.246,0,0,0-24.245,2.466,11.436,11.436,0,0,0,2.486,7.251c-2.486,2.455-6,5.791-6.286,6.081-.435.58-1.17,1.885-.145,2.9s2.341.29,2.921-.145l6.276-6.236a12.54,12.54,0,0,0,7.312,2.32A12.116,12.116,0,0,0,219,749.837Z" transform="translate(-189.454 -736.476)" stroke="rgba(0,0,0,0)" stroke-width="1"/>
</svg>
